<?xml version="1.0" encoding="UTF-8" standalone="no"?>
<!-- Created with Inkscape (http://www.inkscape.org/) -->

<svg
   width="128"
   height="128"
   viewBox="0 0 128 128"
   version="1.1"
   id="svg5"
   xml:space="preserve"
   xmlns="http://www.w3.org/2000/svg"
   xmlns:svg="http://www.w3.org/2000/svg"><defs
     id="defs2"><clipPath
       id="6e9067cc-f0d6-40c6-b994-868f456b6d73"><rect
         x="0"
         y="0"
         width="3.2"
         height="16"
         id="rect6637" /><rect
         x="0"
         y="10"
         width="16"
         height="6"
         id="rect6639" /><rect
         x="5"
         y="0"
         width="11"
         height="16"
         id="rect6641" /></clipPath><clipPath
       id="9de010af-6433-4b9a-892a-10e296e5c7b2"><rect
         x="0"
         y="2"
         width="16"
         height="8"
         id="rect6644" /></clipPath></defs><rect
     style="fill:#003399;fill-opacity:1;stroke-width:2.26667;stroke-miterlimit:2"
     id="rect3973"
     width="68"
     height="68"
     x="60"
     y="60" /><circle
     style="fill:#0055ff;fill-opacity:1;stroke-width:2.13333;stroke-miterlimit:2"
     id="path183"
     cx="64"
     cy="64"
     r="64" /><g
     id="g6665"
     transform="matrix(0.81593194,0,0,0.81593194,111.18407,113.36814)"
     style="stroke:#eeeeec;stroke-opacity:1"><path
       fill="none"
       stroke="#000000"
       stroke-width="2"
       clip-path="url(#6e9067cc-f0d6-40c6-b994-868f456b6d73)"
       d="M 2,2 V 12 H 13 L 4,3"
       id="path6649"
       style="stroke:#eeeeec;stroke-opacity:1" /><path
       fill="none"
       stroke="#000000"
       stroke-width="2"
       clip-path="url(#9de010af-6433-4b9a-892a-10e296e5c7b2)"
       d="M 3,13 15,1"
       id="path6651"
       style="stroke:#eeeeec;stroke-opacity:1" /></g><path
     id="rect236"
     style="fill:#eeeeec;fill-opacity:1;stroke:none;stroke-width:4.89898;stroke-linecap:square;stroke-miterlimit:2"
     d="m 34,24 v 80 H 94 V 24 Z m 16,4 12,24 H 58 L 55.332032,46 H 44.667968 L 42,52 h -4 z m 22,0 h 4 v 6 h 2 v -4 l 2,-2 h 10 v 4 h -8 v 4 h 4 v -2 h 4 v 4 l -2,2 2,2 v 2 l -2,2 2,2 v 2 l -2,2 H 78 v -4 h 8 l -2,-2 2,-2 h -8 v -4 h 2 l -2,-2 h -2 v 2 h -4 l 2,2 v 10 h -4 v -8 h -2 v -4 h 4 v -2 h -6 v -4 z m -22,6 -3.554688,8 h 7.109376 z M 38,56 62,80 H 38 Z m 6,0 h 4 l 4,4 h -4 z m 28,0 6,6 v -6 h 4 l 2,2 2,-2 h 4 v 6 l -6,6 h 1 l 2,2 v 2 h 1 l 2,2 v 2 l -2,2 h -2 l -2,-2 2,4 h -4 l 2,-4 -2,2 h -2 l -2,-2 v -2 l -6,6 -6,-6 6,-6 h -2 l 2,-4 -4,2 h -2 v -4 z m 0,8 2,4 h -2 l 6,6 2,-2 h 1 v -2 l 2,-2 h 1 l -6,-6 v 4 H 76 Z M 50,62 h 4 l 2,2 v 4 z m -8,2 v 12 h 12 z m 16,2 4,4 v 4 L 58,70 Z M 38,86 h 14 v 2 H 38 Z m 16,0 h 20 v 2 H 54 Z m 22,0 h 14 v 2 H 76 Z m -38,4 h 8 v 2 h -8 z m 10,0 h 6 v 2 h -6 z m 8,0 h 10 v 2 H 56 Z m 12,0 h 4 v 2 h -4 z m 6,0 h 10 v 2 H 74 Z m 12,0 h 4 v 2 h -4 z m -48,4 h 12 v 2 H 38 Z m 14,0 h 12 v 2 H 52 Z m 14,0 h 6 v 2 h -6 z m 8,0 h 6 v 2 h -6 z m 8,0 h 8 v 2 h -8 z m -44,4 h 20 v 2 H 38 Z m 22,0 h 6 v 2 h -6 z m 8,0 h 22 v 2 H 68 Z" /></svg>
