<?xml version="1.0" encoding="UTF-8" standalone="no"?>
<!-- Created with Inkscape (http://www.inkscape.org/) -->

<svg
   width="40"
   height="40"
   viewBox="0 0 40 40"
   version="1.1"
   id="svg5"
   xmlns="http://www.w3.org/2000/svg"
   xmlns:svg="http://www.w3.org/2000/svg">
  <defs
     id="defs2" />
  <g
     id="layer1">
    <path
       id="rect236"
       style="fill:#0055ff;fill-opacity:1;stroke:none;stroke-width:2.44949;stroke-linecap:square;stroke-miterlimit:2"
       d="M 5 0 L 5 40 L 35 40 L 35 0 L 5 0 z M 13 2 L 19 14 L 17 14 L 15.666016 11 L 10.333984 11 L 9 14 L 7 14 L 13 2 z M 24 2 L 26 2 L 26 5 L 27 5 L 27 3 L 28 2 L 33 2 L 33 4 L 29 4 L 29 6 L 31 6 L 31 5 L 33 5 L 33 7 L 32 8 L 33 9 L 33 10 L 32 11 L 33 12 L 33 13 L 32 14 L 27 14 L 27 12 L 31 12 L 30 11 L 31 10 L 27 10 L 27 8 L 28 8 L 27 7 L 26 7 L 26 8 L 24 8 L 25 9 L 25 14 L 23 14 L 23 10 L 22 10 L 22 8 L 24 8 L 24 7 L 21 7 L 21 5 L 24 2 z M 13 5 L 11.222656 9 L 14.777344 9 L 13 5 z M 7 16 L 19 28 L 7 28 L 7 16 z M 10 16 L 12 16 L 14 18 L 12 18 L 10 16 z M 24 16 L 27 19 L 27 16 L 29 16 L 30 17 L 31 16 L 33 16 L 33 19 L 30 22 L 30.5 22 L 31.5 23 L 31.5 24 L 32 24 L 33 25 L 33 26 L 32 27 L 31 27 L 30 26 L 31 28 L 29 28 L 30 26 L 29 27 L 28 27 L 27 26 L 27 25 L 24 28 L 21 25 L 24 22 L 23 22 L 24 20 L 22 21 L 21 21 L 21 19 L 24 16 z M 24 20 L 25 22 L 24 22 L 27 25 L 28 24 L 28.5 24 L 28.5 23 L 29.5 22 L 30 22 L 27 19 L 27 21 L 26 21 L 24 20 z M 13 19 L 15 19 L 16 20 L 16 22 L 13 19 z M 9 20 L 9 26 L 15 26 L 9 20 z M 17 21 L 19 23 L 19 25 L 17 23 L 17 21 z M 7 31 L 14 31 L 14 32 L 7 32 L 7 31 z M 15 31 L 25 31 L 25 32 L 15 32 L 15 31 z M 26 31 L 33 31 L 33 32 L 26 32 L 26 31 z M 7 33 L 11 33 L 11 34 L 7 34 L 7 33 z M 12 33 L 15 33 L 15 34 L 12 34 L 12 33 z M 16 33 L 21 33 L 21 34 L 16 34 L 16 33 z M 22 33 L 24 33 L 24 34 L 22 34 L 22 33 z M 25 33 L 30 33 L 30 34 L 25 34 L 25 33 z M 31 33 L 33 33 L 33 34 L 31 34 L 31 33 z M 7 35 L 13 35 L 13 36 L 7 36 L 7 35 z M 14 35 L 20 35 L 20 36 L 14 36 L 14 35 z M 21 35 L 24 35 L 24 36 L 21 36 L 21 35 z M 25 35 L 28 35 L 28 36 L 25 36 L 25 35 z M 29 35 L 33 35 L 33 36 L 29 36 L 29 35 z M 7 37 L 17 37 L 17 38 L 7 38 L 7 37 z M 18 37 L 21 37 L 21 38 L 18 38 L 18 37 z M 22 37 L 33 37 L 33 38 L 22 38 L 22 37 z " />
  </g>
</svg>
